<?xml version="1.0" standalone="no"?>
<!DOCTYPE svg PUBLIC "-//W3C//DTD SVG 20010904//EN"
 "http://www.w3.org/TR/2001/REC-SVG-20010904/DTD/svg10.dtd">
<svg version="1.0" xmlns="http://www.w3.org/2000/svg"
 width="1280.000000pt" height="840.000000pt" viewBox="0 0 1280.000000 840.000000"
 preserveAspectRatio="xMidYMid meet">
<metadata>
Created by potrace 1.15, written by Peter Selinger 2001-2017
</metadata>
<g transform="translate(0.000000,840.000000) scale(0.100000,-0.100000)"
fill="#000000" stroke="none">
<path d="M6340 8389 c-903 -71 -1711 -399 -2400 -973 -117 -98 -355 -331 -459
-451 -890 -1022 -1233 -2380 -935 -3700 114 -505 325 -988 622 -1425 309 -456
713 -852 1177 -1155 375 -245 738 -410 1169 -530 810 -226 1673 -202 2471 67
1162 392 2109 1293 2559 2436 500 1270 351 2718 -397 3847 -642 970 -1632
1624 -2767 1829 -320 58 -731 79 -1040 55z m805 -228 c880 -120 1645 -489
2274 -1096 907 -877 1341 -2130 1175 -3400 -184 -1414 -1143 -2643 -2475
-3173 -325 -130 -641 -210 -1014 -259 -199 -25 -729 -26 -930 0 -831 106
-1559 431 -2175 973 -672 591 -1133 1407 -1289 2284 -48 270 -55 360 -55 710
0 350 7 440 55 710 223 1249 1045 2331 2194 2886 403 194 840 321 1265 368 80
9 161 18 180 20 19 2 172 3 340 1 237 -3 338 -8 455 -24z"/>
<path d="M6450 7710 c-1551 -90 -2873 -1197 -3238 -2710 -180 -743 -113 -1535
188 -2237 369 -858 1078 -1549 1944 -1895 699 -278 1471 -328 2201 -141 1092
279 2000 1077 2415 2122 114 289 190 593 232 931 17 139 17 652 0 780 -54 397
-132 689 -269 1009 -382 894 -1154 1619 -2064 1939 -460 162 -930 229 -1409
202z m475 -211 c246 -21 448 -57 663 -120 855 -250 1567 -817 2000 -1594 444
-796 538 -1772 255 -2650 -271 -841 -885 -1559 -1674 -1955 -350 -176 -700
-282 -1114 -337 -181 -23 -609 -23 -790 0 -446 59 -840 186 -1209 389 -845
465 -1458 1284 -1660 2219 -58 268 -70 391 -70 714 0 323 12 444 70 715 214
998 903 1867 1827 2305 388 183 759 281 1212 318 95 8 380 6 490 -4z"/>
<path d="M11287 7676 c-54 -15 -111 -57 -145 -106 -50 -75 -52 -91 -62 -797
-10 -763 -4 -875 67 -1193 84 -383 225 -614 415 -681 47 -16 54 -42 69 -253 9
-120 9 -235 0 -470 -15 -399 -23 -528 -116 -1681 -35 -446 -46 -614 -52 -855
-9 -360 6 -429 109 -511 94 -74 191 -112 315 -124 86 -8 220 8 281 35 85 37
197 111 220 144 52 76 47 303 -24 1116 -106 1215 -120 1417 -130 1821 -11 453
27 749 98 749 11 0 53 16 93 35 183 88 297 300 350 652 14 91 17 239 22 954 5
895 4 923 -41 1023 -73 161 -254 195 -367 69 -83 -92 -97 -199 -98 -739 -1
-165 -4 -396 -8 -513 l-6 -211 -24 -6 c-14 -4 -35 -2 -49 5 l-24 11 0 643 c0
702 -1 719 -58 802 -38 56 -109 90 -187 89 -106 -1 -181 -58 -226 -171 l-24
-58 3 -663 3 -663 -33 3 -33 3 0 675 0 675 -28 57 c-34 69 -84 113 -151 133
-59 18 -95 18 -159 1z"/>
<path d="M830 7424 c-256 -32 -441 -116 -595 -269 -195 -195 -231 -318 -229
-795 2 -697 157 -1461 357 -1767 56 -85 109 -136 169 -163 39 -17 49 -27 58
-58 25 -91 33 -244 27 -577 -7 -374 -16 -539 -82 -1405 -61 -809 -63 -833 -75
-1120 -13 -295 -4 -446 31 -517 34 -70 146 -146 259 -174 68 -17 256 -17 330
1 98 23 263 118 292 168 52 87 46 306 -28 1147 -98 1112 -108 1250 -124 1679
-16 406 4 699 54 821 8 19 21 35 29 35 8 0 41 14 75 31 227 113 367 506 444
1249 18 173 18 842 0 970 -23 159 -42 231 -87 325 -98 205 -288 339 -558 395
-93 19 -282 32 -347 24z"/>
</g>
</svg>
